<svg width="88" height="18" viewBox="0 0 88 18" fill="none" xmlns="http://www.w3.org/2000/svg">
<path d="M5.92398 8.98872C4.14171 8.96589 2.41653 7.81408 2.34042 5.66394C2.41526 3.5138 4.14044 2.36325 5.92398 2.33915C6.93119 2.33915 7.81407 2.70829 8.55489 3.27151L9.83102 1.37888C8.80352 0.545466 7.48806 0 5.92018 0C2.45078 0 0 2.59159 0 5.66394C0 8.73629 2.44951 11.3291 5.92018 11.3291C7.48806 11.3291 8.80352 10.7824 9.83102 9.94772L8.55362 8.05763C7.81407 8.61959 6.93119 8.98872 5.92398 8.98872Z" fill="#012D94"/>
<path d="M16.9277 0.258789H14.5911L10.6523 11.0653H12.9902L13.8351 8.74645L14.6393 6.54049L15.7607 3.46433L16.8808 6.54049L17.6863 8.74645L18.5298 11.0653H20.8677L16.9277 0.258789Z" fill="#012D94"/>
<path d="M26.2417 0.258789H22.2852V11.0653H24.4772V8.74645H26.2417C28.5123 8.74645 30.3161 6.80054 30.3161 4.50198C30.3161 2.2047 28.5123 0.258789 26.2417 0.258789ZM26.2417 6.55571H24.4772V2.45079H26.2417C27.2603 2.45079 28.1241 3.3248 28.1241 4.50325C28.1241 5.68297 27.2603 6.55571 26.2417 6.55571Z" fill="#012D94"/>
<path d="M31.5625 0.258789V11.0653H33.7672V0.258789H31.5625Z" fill="#012D94"/>
<path d="M39.2599 4.38146C38.6764 4.19245 37.5246 3.83093 37.5246 3.1954C37.5246 2.54084 38.2083 2.19708 38.8109 2.19708C39.5644 2.19708 40.1606 2.4901 40.6642 2.79328L41.8997 1.00594C41.1145 0.515021 40.2684 0 38.8083 0C36.8903 0 35.2704 1.41313 35.2704 3.19667C35.2704 5.07281 36.8332 6.00517 38.3694 6.42124C39.1115 6.64831 40.3014 7.01744 40.3014 7.81534C40.3014 8.70965 39.4616 9.07752 38.7106 9.07752C37.6781 9.07752 36.7939 8.58533 36.0379 8.02465L34.9102 9.93631C35.9947 10.7583 37.1859 11.3291 38.7373 11.3291C41.084 11.3291 42.5542 9.59254 42.5542 7.81281V7.80266C42.5542 5.96838 41.0612 4.8635 39.2599 4.38146Z" fill="#012D94"/>
<path d="M47.7781 0.258789H43.8203V11.0653H46.0123V8.74645H47.7781C50.0487 8.74645 51.8526 6.80054 51.8526 4.50198C51.8526 2.2047 50.0487 0.258789 47.7781 0.258789ZM47.7781 6.55571H46.0123V2.45079H47.7781C48.7967 2.45079 49.6606 3.3248 49.6606 4.50325C49.6606 5.68297 48.7967 6.55571 47.7781 6.55571Z" fill="#012D94"/>
<path d="M59.4422 0.258789V4.5578H55.3297V0.258789H53.125V11.0653H55.3297V6.76629H59.4422V11.0653H61.6469V0.258789H59.4422Z" fill="#012D94"/>
<path d="M76.912 8.39146C78.3569 7.72802 79.3552 6.21341 79.3552 4.50345C79.3552 2.20489 77.5514 0.260254 75.2807 0.260254H71.3242V11.0668H73.5162V8.74791H74.3484L76.7015 11.0668H79.6267L76.912 8.39146ZM75.2807 6.55591H73.5162V2.45098H75.2807C76.2993 2.45098 77.1632 3.32499 77.1632 4.50345C77.1632 5.68317 76.2993 6.55591 75.2807 6.55591Z" fill="#012D94"/>
<path d="M87.9088 0.26123H80.7695V2.46719H87.9088V0.26123Z" fill="#012D94"/>
<path d="M87.1572 4.64893H81.3359V6.67856H87.1572V4.64893Z" fill="#012D94"/>
<path d="M87.9088 8.85938H80.7695V11.0653H87.9088V8.85938Z" fill="#012D94"/>
<path d="M70.0533 0.26123H62.9141V2.46719H70.0533V0.26123Z" fill="#012D94"/>
<path d="M69.3017 4.64893H63.4805V6.67856H69.3017V4.64893Z" fill="#012D94"/>
<path d="M70.0533 8.85938H62.9141V11.0653H70.0533V8.85938Z" fill="#012D94"/>
<path d="M15.6892 14.7277L15.3962 15.1514C15.2769 15.0791 15.1349 15.0106 14.956 15.0106C14.8127 15.0106 14.6503 15.0918 14.6503 15.2466C14.6503 15.3975 14.923 15.4838 15.0626 15.5282C15.49 15.6423 15.844 15.9049 15.844 16.34V16.3413V16.3426C15.844 16.765 15.4951 17.176 14.9382 17.176C14.5704 17.176 14.2875 17.0402 14.0312 16.8462L14.2989 16.3933C14.4778 16.5265 14.6883 16.6432 14.9319 16.6432C15.1108 16.6432 15.3099 16.5557 15.3099 16.3438C15.3099 16.1548 15.0283 16.0673 14.852 16.0128C14.4879 15.9138 14.1175 15.6931 14.1175 15.2478C14.1175 14.8254 14.5019 14.4893 14.956 14.4893C15.3023 14.4893 15.504 14.611 15.6892 14.7277Z" fill="#012D94"/>
<path d="M24.8713 15.8326C24.8713 16.5747 24.2675 17.176 23.5216 17.176C22.7757 17.176 22.1719 16.5747 22.1719 15.8326C22.1719 15.0905 22.7757 14.4893 23.5216 14.4893C24.2675 14.4893 24.8713 15.0905 24.8713 15.8326ZM22.6831 15.8326C22.6831 16.2956 23.0586 16.6711 23.5216 16.6711C23.9846 16.6711 24.3601 16.2956 24.3601 15.8326C24.3601 15.3696 23.9846 14.9941 23.5216 14.9941C23.0586 14.9941 22.6831 15.3696 22.6831 15.8326Z" fill="#012D94"/>
<path d="M31.6915 14.5513V16.591H32.8547V17.1149H31.1523V14.5513H31.6915Z" fill="#012D94"/>
<path d="M39.6225 14.5513V16.1103C39.6225 16.4426 39.9067 16.6342 40.121 16.6342C40.3354 16.6342 40.6196 16.4426 40.6196 16.1103V14.5513H41.1549V16.1293C41.1549 16.7369 40.6805 17.1758 40.121 17.1758C39.5616 17.1758 39.0859 16.7369 39.0859 16.1293V14.5513H39.6225Z" fill="#012D94"/>
<path d="M49.542 14.5513V15.0777H48.7847V17.1137H48.2456V15.0777H47.4883V14.5513H49.542Z" fill="#012D94"/>
<path d="M56.3976 14.5513V17.1149H55.875V14.5513H56.3976Z" fill="#012D94"/>
<path d="M65.426 15.8326C65.426 16.5747 64.8222 17.176 64.0763 17.176C63.3304 17.176 62.7266 16.5747 62.7266 15.8326C62.7266 15.0905 63.3304 14.4893 64.0763 14.4893C64.8222 14.4893 65.426 15.0905 65.426 15.8326ZM63.2378 15.8326C63.2378 16.2956 63.6133 16.6711 64.0763 16.6711C64.5393 16.6711 64.9148 16.2956 64.9148 15.8326C64.9148 15.3696 64.5393 14.9941 64.0763 14.9941C63.6133 14.9941 63.2378 15.3696 63.2378 15.8326Z" fill="#012D94"/>
<path d="M72.1738 14.5513L73.3536 16.1039V14.5513H73.8775V17.1137H73.4094L72.2297 15.561V17.1137H71.707V14.5513H72.1738Z" fill="#012D94"/>
</svg>
