<svg width="17" height="12" viewBox="0 0 17 12" fill="none" xmlns="http://www.w3.org/2000/svg">
<path d="M16.3443 1.92676C16.6959 3.15723 16.6959 5.79395 16.6959 5.79395C16.6959 5.79395 16.6959 8.40137 16.3443 9.66113C16.1685 10.3643 15.6119 10.8916 14.9381 11.0674C13.6783 11.3896 8.69784 11.3896 8.69784 11.3896C8.69784 11.3896 3.68808 11.3896 2.42831 11.0674C1.75448 10.8916 1.19784 10.3643 1.02206 9.66113C0.6705 8.40137 0.6705 5.79395 0.6705 5.79395C0.6705 5.79395 0.6705 3.15723 1.02206 1.92676C1.19784 1.22363 1.75448 0.666992 2.42831 0.491211C3.68808 0.139648 8.69784 0.139648 8.69784 0.139648C8.69784 0.139648 13.6783 0.139648 14.9381 0.491211C15.6119 0.666992 16.1685 1.22363 16.3443 1.92676ZM7.05722 8.16699L11.2174 5.79395L7.05722 3.4209V8.16699Z" fill="black"/>
</svg>
