<svg width="25" height="26" viewBox="0 0 25 26" fill="none" xmlns="http://www.w3.org/2000/svg">
<rect y="0.389648" width="25" height="25" rx="12.5" fill="#E2E2E2"/>
<path d="M12.6822 9.39551C14.5279 9.39551 16.0514 10.9189 16.0514 12.7646C16.0514 14.6396 14.5279 16.1338 12.6822 16.1338C10.8072 16.1338 9.31308 14.6396 9.31308 12.7646C9.31308 10.9189 10.8072 9.39551 12.6822 9.39551ZM12.6822 14.9619C13.8834 14.9619 14.8502 13.9951 14.8502 12.7646C14.8502 11.5635 13.8834 10.5967 12.6822 10.5967C11.4517 10.5967 10.485 11.5635 10.485 12.7646C10.485 13.9951 11.481 14.9619 12.6822 14.9619ZM16.9596 9.27832C16.9596 9.71777 16.608 10.0693 16.1685 10.0693C15.7291 10.0693 15.3775 9.71777 15.3775 9.27832C15.3775 8.83887 15.7291 8.4873 16.1685 8.4873C16.608 8.4873 16.9596 8.83887 16.9596 9.27832ZM19.1861 10.0693C19.2447 11.1533 19.2447 14.4053 19.1861 15.4893C19.1275 16.5439 18.8932 17.4521 18.1314 18.2432C17.3697 19.0049 16.4322 19.2393 15.3775 19.2979C14.2935 19.3564 11.0416 19.3564 9.95761 19.2979C8.90292 19.2393 7.99472 19.0049 7.2037 18.2432C6.44198 17.4521 6.20761 16.5439 6.14902 15.4893C6.09042 14.4053 6.09042 11.1533 6.14902 10.0693C6.20761 9.01465 6.44198 8.07715 7.2037 7.31543C7.99472 6.55371 8.90292 6.31934 9.95761 6.26074C11.0416 6.20215 14.2935 6.20215 15.3775 6.26074C16.4322 6.31934 17.3697 6.55371 18.1314 7.31543C18.8932 8.07715 19.1275 9.01465 19.1861 10.0693ZM17.7799 16.6318C18.1314 15.7822 18.0435 13.7314 18.0435 12.7646C18.0435 11.8271 18.1314 9.77637 17.7799 8.89746C17.5455 8.34082 17.106 7.87207 16.5494 7.66699C15.6705 7.31543 13.6197 7.40332 12.6822 7.40332C11.7154 7.40332 9.66464 7.31543 8.81503 7.66699C8.22909 7.90137 7.78964 8.34082 7.55527 8.89746C7.2037 9.77637 7.29159 11.8271 7.29159 12.7646C7.29159 13.7314 7.2037 15.7822 7.55527 16.6318C7.78964 17.2178 8.22909 17.6572 8.81503 17.8916C9.66464 18.2432 11.7154 18.1553 12.6822 18.1553C13.6197 18.1553 15.6705 18.2432 16.5494 17.8916C17.106 17.6572 17.5748 17.2178 17.7799 16.6318Z" fill="black"/>
</svg>
