<svg width="25" height="26" viewBox="0 0 25 26" fill="none" xmlns="http://www.w3.org/2000/svg">
<rect y="0.389648" width="25" height="25" rx="12.5" fill="#E2E2E2"/>
<path d="M19.9531 12.7646C19.9531 16.3975 17.2871 19.415 13.8008 19.9424V14.874H15.5L15.8223 12.7646H13.8008V11.417C13.8008 10.8311 14.0938 10.2744 15.002 10.2744H15.9102V8.4873C15.9102 8.4873 15.0898 8.34082 14.2695 8.34082C12.6289 8.34082 11.5449 9.36621 11.5449 11.1826V12.7646H9.69922V14.874H11.5449V19.9424C8.05859 19.415 5.42188 16.3975 5.42188 12.7646C5.42188 8.75098 8.67383 5.49902 12.6875 5.49902C16.7012 5.49902 19.9531 8.75098 19.9531 12.7646Z" fill="black"/>
</svg>
