<svg width="25" height="26" viewBox="0 0 25 26" fill="none" xmlns="http://www.w3.org/2000/svg">
<rect y="0.389648" width="25" height="25" rx="12.5" fill="#E2E2E2"/>
<path d="M20.3443 8.92676C20.6959 10.1572 20.6959 12.7939 20.6959 12.7939C20.6959 12.7939 20.6959 15.4014 20.3443 16.6611C20.1685 17.3643 19.6119 17.8916 18.9381 18.0674C17.6783 18.3896 12.6978 18.3896 12.6978 18.3896C12.6978 18.3896 7.68808 18.3896 6.42831 18.0674C5.75448 17.8916 5.19784 17.3643 5.02206 16.6611C4.6705 15.4014 4.6705 12.7939 4.6705 12.7939C4.6705 12.7939 4.6705 10.1572 5.02206 8.92676C5.19784 8.22363 5.75448 7.66699 6.42831 7.49121C7.68808 7.13965 12.6978 7.13965 12.6978 7.13965C12.6978 7.13965 17.6783 7.13965 18.9381 7.49121C19.6119 7.66699 20.1685 8.22363 20.3443 8.92676ZM11.0572 15.167L15.2174 12.7939L11.0572 10.4209V15.167Z" fill="black"/>
</svg>
